<svg width="181" height="428" viewBox="0 0 181 428" fill="none" xmlns="http://www.w3.org/2000/svg">
<path d="M158.566 320.386C146.368 349.895 127.721 353.319 89.5968 360.317C42.9786 368.876 28.2422 349.558 17.9675 337.339C-27.5242 273.284 -12.752 82.5046 4.44723 36.4865C11.9161 24.3767 24.1155 3.33038 59.2022 19.4573C113.294 44.3197 170.764 290.877 158.566 320.386Z" fill="url(#paint0_linear_32_535)"/>
<ellipse cx="106.184" cy="398.485" rx="34.7579" ry="13.8733" transform="rotate(-10.4025 106.184 398.485)" fill="#53B564"/>
<path d="M104.716 393.82L49.4393 92.7154" stroke="#C58C47" stroke-width="6" stroke-linecap="round"/>
<path d="M58.9075 153.04C47.3279 157.046 23.3978 155.609 20.3138 117.809" stroke="#C58C47" stroke-width="6" stroke-linecap="round"/>
<path d="M94.7923 130.698C94.6179 129.05 93.1409 127.856 91.4932 128.03C89.8456 128.205 88.6512 129.682 88.8256 131.33L94.7923 130.698ZM68.8093 190.003C80.6321 188.217 99.263 172.939 94.7923 130.698L88.8256 131.33C93.1022 171.737 75.3668 182.945 67.9131 184.071L68.8093 190.003Z" fill="#C58C47"/>
<path d="M80.8929 268.427C64.9663 273.545 30.9739 269.504 22.4179 212.397" stroke="#C58C47" stroke-width="6" stroke-linecap="round"/>
<defs>
<linearGradient id="paint0_linear_32_535" x1="29.2777" y1="13.6667" x2="92.8073" y2="359.728" gradientUnits="userSpaceOnUse">
<stop stop-color="#F6CF79"/>
<stop offset="1" stop-color="#F4C25C"/>
</linearGradient>
</defs>
</svg>
