<svg width="1200" height="160" viewBox="0 0 1200 160" fill="none" xmlns="http://www.w3.org/2000/svg">
<ellipse cx="610.585" cy="147.162" rx="716.5" ry="143.5" fill="url(#paint0_linear_14_468)"/>
<path opacity="0.5" d="M87.0854 159.662C34.2854 177.662 -19.5812 152.162 -39.9146 137.162L-82.9146 102.662L-16.4146 75.1621L76.5854 51.6621L223.085 26.1621L436.585 6.16217L625.585 0.662079L816.585 8.16208L974.585 22.1621L1132.59 46.6621L1257.09 71.6621C1232.09 91.3287 1157.49 200.262 1121.09 216.662C1075.59 237.162 960.085 137.162 925.585 137.162C891.085 137.162 810.085 216.662 705.585 230.162C601.085 243.662 523.585 216.662 476.085 216.662C428.585 216.662 323.585 137.162 289.585 137.162C255.585 137.162 153.085 137.162 87.0854 159.662Z" fill="url(#paint1_linear_14_468)"/>
<path opacity="0.8" d="M53.275 140.138C10.475 150.138 -38.8917 123.971 -58.225 109.638L-81.5786 94.8674C-648.774 285.046 -356.377 129.849 -116.725 72.638L-81.5786 94.8674C-80.3613 94.4592 -79.1399 94.0494 -77.9146 93.638C384.519 -61.6135 1050.21 8.88186 1240.78 72.638C1237.78 87.9714 1227.18 118.638 1208.78 118.638C1185.78 118.638 1135.09 93.638 1119.09 93.638C1103.09 93.638 1084.59 99.1621 1047.59 108.162C1010.59 117.162 970.585 94.6621 922.585 84.1621C874.585 73.6621 898.275 118.638 836.275 118.638C774.275 118.638 771.585 94.6621 731.085 84.1621C690.585 73.6621 696.085 102.162 666.085 102.162C636.085 102.162 626.585 93.638 596.085 93.638C565.585 93.638 534.085 131.162 491.585 125.662C449.085 120.162 446.585 89.1621 428.585 84.1621C410.585 79.1621 371.085 91.6621 351.585 102.162C332.085 112.662 274.085 109.638 219.085 109.638C164.085 109.638 146.085 102.162 123.085 102.162C100.085 102.162 106.775 127.638 53.275 140.138Z" fill="url(#paint2_linear_14_468)"/>
<defs>
<linearGradient id="paint0_linear_14_468" x1="610.585" y1="3.66199" x2="610.585" y2="290.662" gradientUnits="userSpaceOnUse">
<stop stop-color="#07754C"/>
<stop offset="1" stop-color="#297257"/>
</linearGradient>
<linearGradient id="paint1_linear_14_468" x1="579.335" y1="27.662" x2="579.335" y2="233.942" gradientUnits="userSpaceOnUse">
<stop stop-color="#75F291"/>
<stop offset="1" stop-color="#1A692C"/>
</linearGradient>
<linearGradient id="paint2_linear_14_468" x1="415.645" y1="1.19186" x2="415.645" y2="185.128" gradientUnits="userSpaceOnUse">
<stop stop-color="#8FEE6D"/>
<stop offset="1" stop-color="#0D6D56"/>
</linearGradient>
</defs>
</svg>
