<svg width="223" height="361" viewBox="0 0 223 361" fill="none" xmlns="http://www.w3.org/2000/svg">
<path d="M203.048 265.848C189.51 290.938 170.303 294.464 131.035 301.673C83.0178 310.488 68.6256 294.874 58.5464 285.033C14.2752 233.141 36.2069 73.2206 55.4529 34.1593C63.5294 23.775 76.7665 5.7556 112.1 17.9763C166.573 36.8166 216.586 240.758 203.048 265.848Z" fill="url(#paint0_linear_32_536)"/>
<ellipse cx="146.648" cy="332.969" rx="35.801" ry="11.4999" transform="rotate(-10.4025 146.648 332.969)" fill="#5ABD66"/>
<path d="M145.312 329.123L99.4922 79.5306" stroke="#CD755E" stroke-width="7" stroke-linecap="round"/>
<path d="M107.028 129.592C95.0339 133.353 70.5939 133.007 68.7874 101.536" stroke="#CD755E" stroke-width="7" stroke-linecap="round"/>
<path d="M144.975 109.711C144.807 107.785 143.109 106.36 141.184 106.528C139.258 106.696 137.833 108.394 138.001 110.319L144.975 109.711ZM116.034 161.116C121.861 160.199 129.924 156.415 136.12 148.257C142.371 140.027 146.537 127.6 144.975 109.711L138.001 110.319C139.44 126.799 135.565 137.415 130.545 144.023C125.471 150.705 119.034 153.558 114.945 154.201L116.034 161.116Z" fill="#CD755E"/>
<path d="M125.409 225.21C108.926 230.055 74.2805 227.893 67.5632 180.487" stroke="#CD755E" stroke-width="7" stroke-linecap="round"/>
<defs>
<linearGradient id="paint0_linear_32_536" x1="81.0464" y1="14.8784" x2="133.609" y2="301.2" gradientUnits="userSpaceOnUse">
<stop stop-color="#F2A689"/>
<stop offset="1" stop-color="#F28C6D"/>
</linearGradient>
</defs>
</svg>
