<svg width="184" height="408" viewBox="0 0 184 408" fill="none" xmlns="http://www.w3.org/2000/svg">
<path d="M171.645 330.504C149.374 352.591 129.626 349.27 89.2514 342.482C39.881 334.181 31.8276 311.967 25.7838 297.59C2.43883 225.079 82.5828 60.4093 115.497 25.3441C127.09 17.1211 146.459 2.56329 175.877 28.8867C221.23 69.4686 193.915 308.418 171.645 330.504Z" fill="url(#paint0_linear_32_544)"/>
<ellipse cx="92.6831" cy="382.097" rx="36.7131" ry="13.1759" transform="rotate(9.54393 92.6831 382.097)" fill="#5BBE66"/>
<path d="M92.8212 377.446L141.028 90.7224" stroke="#CD755E" stroke-width="7" stroke-linecap="round"/>
<path d="M129.77 147.617C116.862 147.228 93.5189 137.781 103.411 103.103" stroke="#CD755E" stroke-width="7" stroke-linecap="round"/>
<path d="M173.487 140.125C173.967 138.253 172.839 136.345 170.967 135.865C169.094 135.384 167.187 136.513 166.706 138.385L173.487 140.125ZM126.849 184.521C139.172 186.955 163.319 179.751 173.487 140.125L166.706 138.385C157.243 175.267 136.081 179.21 128.205 177.654L126.849 184.521Z" fill="#CD755E"/>
<path d="M112.097 257.767C94.4773 256.883 62.0041 241.685 73.0669 187.964" stroke="#CD755E" stroke-width="7" stroke-linecap="round"/>
<defs>
<linearGradient id="paint0_linear_32_544" x1="147.199" y1="14.0104" x2="91.898" y2="342.927" gradientUnits="userSpaceOnUse">
<stop stop-color="#F2A689"/>
<stop offset="1" stop-color="#F28C6D"/>
</linearGradient>
</defs>
</svg>
