<svg width="587" height="383" viewBox="0 0 587 383" fill="none" xmlns="http://www.w3.org/2000/svg">
<path d="M531.773 227.744C531.773 353.524 425.332 455.488 294.029 455.488C162.727 455.488 56.2853 353.524 56.2853 227.744C56.2853 101.964 162.727 0 294.029 0C425.332 0 531.773 101.964 531.773 227.744Z" fill="url(#paint0_linear_32_577)"/>
<ellipse cx="347.031" cy="127.395" rx="38.6739" ry="37.0472" transform="rotate(-176.118 347.031 127.395)" fill="white"/>
<ellipse cx="343.978" cy="121.581" rx="29.1542" ry="27.9279" transform="rotate(-176.118 343.978 121.581)" fill="#1E1E1E"/>
<ellipse cx="242.804" cy="132.934" rx="38.6739" ry="37.0472" transform="rotate(-176.118 242.804 132.934)" fill="white"/>
<ellipse cx="244.978" cy="126.581" rx="29.1542" ry="27.9279" transform="rotate(-176.118 244.978 126.581)" fill="#1E1E1E"/>
<ellipse cx="140.5" cy="186.919" rx="31.5" ry="30.175" fill="#FF993F"/>
<ellipse cx="439.5" cy="174.881" rx="31.5" ry="30.175" fill="#FF993F"/>
<path d="M361.688 182.235L240.143 188.556C240.461 210.537 260.286 241.714 307.812 237.641C350.767 233.959 363.076 203.444 361.688 182.235Z" fill="#020704"/>
<path d="M315.917 208.651C305.63 213.104 296.582 229.692 295.801 237.322C319.638 243.963 345.176 228.561 356.076 209.605C338.958 203.209 325.712 204.412 315.917 208.651Z" fill="#E797BA"/>
<rect x="315.769" y="397.625" width="65.477" height="120.041" rx="20" transform="rotate(-13.4234 315.769 397.625)" fill="#EF6940"/>
<rect y="131.628" width="65.477" height="227.487" rx="20" transform="rotate(-11.3478 0 131.628)" fill="url(#paint1_linear_32_577)"/>
<rect width="65.477" height="227.487" rx="20" transform="matrix(-0.980451 -0.196764 -0.196764 0.980451 586.958 131.627)" fill="url(#paint2_linear_32_577)"/>
<defs>
<linearGradient id="paint0_linear_32_577" x1="224" y1="14.744" x2="403" y2="227.744" gradientUnits="userSpaceOnUse">
<stop stop-color="#FA8A68"/>
<stop offset="0.234558" stop-color="#EF6940"/>
<stop offset="0.911458" stop-color="#F1501F"/>
</linearGradient>
<linearGradient id="paint1_linear_32_577" x1="-6.31932" y1="163.116" x2="92.9744" y2="222.311" gradientUnits="userSpaceOnUse">
<stop offset="0.0434398" stop-color="#FD7B53"/>
<stop offset="0.492768" stop-color="#F46336"/>
</linearGradient>
<linearGradient id="paint2_linear_32_577" x1="53.9596" y1="10.4378" x2="-9.53863" y2="93.0588" gradientUnits="userSpaceOnUse">
<stop offset="0.0145017" stop-color="#FD7B53"/>
<stop offset="0.565765" stop-color="#F16134"/>
</linearGradient>
</defs>
</svg>
