<svg width="175" height="292" viewBox="0 0 175 292" fill="none" xmlns="http://www.w3.org/2000/svg">
<path d="M132.22 236.475C115.231 251.965 99.9234 249.391 68.6271 244.129C30.3578 237.695 23.8938 221.792 19.0672 211.491C0.243697 159.613 60.4769 43.2122 85.5594 18.5937C94.4376 12.8617 109.263 2.70151 132.293 21.7569C167.798 51.134 149.209 220.985 132.22 236.475Z" fill="url(#paint0_linear_32_552)"/>
<ellipse cx="71.7015" cy="272.373" rx="28.4581" ry="9.35823" transform="rotate(9.54393 71.7015 272.373)" fill="#5EC067"/>
<path d="M71.759 269.063L105.998 65.4164" stroke="#D3B147" stroke-width="6" stroke-linecap="round"/>
<path d="M97.8955 105.808C87.9086 105.394 69.7555 98.42 77.0375 73.8326" stroke="#D3B147" stroke-width="6" stroke-linecap="round"/>
<path d="M131.894 101.05C132.318 99.4483 131.363 97.8061 129.762 97.3819C128.16 96.9578 126.518 97.9123 126.094 99.514L131.894 101.05ZM95.9414 132.561C100.619 133.474 107.745 132.772 114.653 128.199C121.621 123.586 128.15 115.186 131.894 101.05L126.094 99.514C122.651 112.513 116.858 119.543 111.341 123.196C105.764 126.888 100.244 127.287 97.0901 126.672L95.9414 132.561Z" fill="#D3B147"/>
<path d="M85.3959 184.052C71.7603 183.235 46.4855 172.069 54.471 133.935" stroke="#D3B147" stroke-width="6" stroke-linecap="round"/>
<defs>
<linearGradient id="paint0_linear_32_552" x1="110.614" y1="10.5203" x2="71.2627" y2="244.573" gradientUnits="userSpaceOnUse">
<stop stop-color="#FFF645"/>
<stop offset="1" stop-color="#EADE47"/>
</linearGradient>
</defs>
</svg>
