<svg width="605" height="550" viewBox="0 0 605 550" fill="none" xmlns="http://www.w3.org/2000/svg">
<ellipse cx="330.997" cy="227.73" rx="231.804" ry="227.73" fill="#EF6940"/>
<ellipse cx="376.6" cy="165.013" rx="40.2827" ry="39.5746" transform="rotate(-180 376.6 165.013)" fill="white"/>
<ellipse cx="376.6" cy="165.013" rx="30.367" ry="29.8332" transform="rotate(-180 376.6 165.013)" fill="#1E1E1E"/>
<ellipse cx="268.678" cy="178.453" rx="40.2827" ry="39.5746" transform="rotate(-180 268.678 178.453)" fill="white"/>
<ellipse cx="268.678" cy="178.452" rx="30.367" ry="29.8332" transform="rotate(-180 268.678 178.452)" fill="#1E1E1E"/>
<ellipse cx="174.434" cy="254.609" rx="32.6806" ry="32.1062" fill="#FF993F"/>
<ellipse cx="479.96" cy="211.303" rx="32.6806" ry="32.1062" fill="#FF993F"/>
<path d="M395.701 222.399L269.836 237.925C271.716 261.329 294.516 293.122 343.618 285.345C387.998 278.315 398.638 244.903 395.701 222.399Z" fill="#020704"/>
<path d="M349.997 253.862C339.621 259.352 331.388 277.685 331.114 285.873C356.354 291.228 381.807 272.966 391.798 251.975C373.558 246.396 359.877 248.636 349.997 253.862Z" fill="#E797BA"/>
<rect width="63.7812" height="115.097" rx="20" transform="matrix(0.973596 -0.228279 0.236069 0.971736 351.464 437.636)" fill="#EF6940"/>
<rect width="63.8407" height="114.986" rx="20" transform="matrix(0.999782 -0.0208714 0.0216247 0.999766 255.35 433.472)" fill="#EF6940"/>
<rect width="62.7642" height="221.65" rx="20" transform="matrix(0.12279 -0.992433 0.993261 0.115897 0 390.289)" fill="#EF6940"/>
<rect width="63.1806" height="158.783" rx="20" transform="matrix(-0.451056 0.892496 -0.900226 -0.435424 604.438 372.138)" fill="#EF6940"/>
</svg>
